<svg id="_0300_china" data-name="0300_china" xmlns="http://www.w3.org/2000/svg" viewBox="0 0 500 500"><defs><style>.cls-1{fill:#68e1fd;}.cls-2{fill:#231f20;}.cls-3{fill:#fff;}.cls-4{fill:#d1d3d4;}</style></defs><g id="Great_Wall" data-name="Great Wall"><path class="cls-1" d="M54.34,253c.21-13.15,10.52-25.45,23.43-27.95,3.47-.67,7.4-.88,9.8-3.47,2.58-2.79,2.24-7.08,3.19-10.76,1.95-7.51,10.52-12.59,18-10.68,2.22-14.26,18.8-24.37,32.49-19.8-2.41-8.62,8.74-16.1,17.33-13.61s14,10.83,17.79,19,6.88,17,13.61,22.85c12.41,10.85,34,8.85,43.06,22.59,4,6.08,4.42,13.79,4.68,21.08q.83,22.35,1.64,44.71c-19.85-5.57-40.54-7.22-61.09-8.85L68.76,279.37"/><path class="cls-2" d="M239.4,297.52l-.18,0c-19.86-5.57-40.75-7.22-61-8.82L68.71,280a.65.65,0,0,1-.59-.69.66.66,0,0,1,.69-.58l109.55,8.66c20,1.58,40.64,3.21,60.37,8.63l-1.61-43.84c-.23-6.52-.53-14.63-4.58-20.75-4.92-7.44-13.53-10.12-22.65-13-7.21-2.25-14.68-4.57-20.29-9.48s-8.88-12.12-11.93-19c-.61-1.37-1.22-2.73-1.84-4.08-4.89-10.53-10.58-16.62-17.39-18.6-4.5-1.3-10.14.27-13.73,3.83-2.69,2.66-3.68,5.85-2.8,9a.66.66,0,0,1-.18.64.65.65,0,0,1-.64.14c-6.35-2.11-13.64-1.1-20,2.78s-10.62,9.91-11.65,16.52a.61.61,0,0,1-.27.43.66.66,0,0,1-.51.09c-7.19-1.82-15.41,3.05-17.27,10.22a31.54,31.54,0,0,0-.61,3.41c-.4,2.72-.81,5.54-2.73,7.62-2.14,2.31-5.29,2.84-8.35,3.35-.6.1-1.21.2-1.8.32C65.25,228.1,55.19,240.11,55,253a.64.64,0,0,1-.64.63h0a.64.64,0,0,1-.63-.65c.22-13.46,10.74-26,24-28.57.6-.12,1.22-.22,1.83-.32,2.84-.48,5.78-1,7.62-2.95,1.65-1.79,2-4.3,2.4-7,.17-1.17.35-2.38.64-3.54,2-7.59,10.49-12.81,18.15-11.29a26.77,26.77,0,0,1,32.14-20,10.55,10.55,0,0,1,3.38-9.15c3.9-3.87,10.07-5.57,15-4.14,7.19,2.08,13.14,8.39,18.19,19.29.63,1.35,1.24,2.72,1.85,4.09,3,6.75,6.09,13.74,11.6,18.55s12.75,7,19.84,9.23c8.92,2.79,18.15,5.66,23.33,13.49,4.24,6.41,4.55,14.73,4.79,21.41l1.64,44.7a.67.67,0,0,1-.25.53A.62.62,0,0,1,239.4,297.52Z"/><polygon class="cls-2" points="217.34 166.25 217.34 161.75 222.75 161.93 222.75 166.43 228.27 166.61 228.27 162.11 233.68 162.29 233.68 166.79 239.2 166.97 239.2 162.47 244.61 162.65 244.61 167.15 250.13 167.33 250.13 162.83 255.54 163.01 255.54 167.51 261.06 167.69 261.06 163.19 266.47 163.37 266.47 167.87 272 168.05 272 163.55 277.4 163.73 277.4 168.23 282.93 168.41 282.93 163.91 288.34 164.09 288.34 168.59 293.86 168.77 293.86 164.27 299.27 164.45 299.27 168.95 304.79 169.13 304.79 164.63 310.2 164.81 310.2 169.31 315.72 169.49 315.72 164.99 321.13 165.17 321.13 169.67 326.65 169.85 326.65 165.35 332.06 165.53 332.06 170.03 337.59 170.21 337.59 165.71 343 165.89 343 170.39 348.52 170.57 348.52 166.07 353.93 166.25 353.93 170.75 359.45 170.93 359.45 166.43 364.86 166.61 364.86 171.11 370.38 171.29 370.38 166.79 375.79 166.97 375.79 171.47 383.86 171.74 383.86 205.2 209.27 199.45 209.27 165.98 217.34 166.25"/><path class="cls-2" d="M383.86,205.9h0l-174.58-5.75a.71.71,0,0,1-.68-.7V166a.67.67,0,0,1,.21-.5.82.82,0,0,1,.51-.2l7.34.25v-3.78a.72.72,0,0,1,.22-.51.66.66,0,0,1,.51-.19l5.41.18a.7.7,0,0,1,.68.7v3.82l4.12.14v-3.78a.67.67,0,0,1,.21-.5.72.72,0,0,1,.51-.2l5.41.18a.7.7,0,0,1,.68.7v3.82l4.12.14v-3.78a.7.7,0,0,1,.72-.7l5.41.18a.7.7,0,0,1,.68.7v3.82l4.12.14v-3.78a.71.71,0,0,1,.21-.5.76.76,0,0,1,.51-.2l5.42.18a.7.7,0,0,1,.67.7v3.82l4.12.14v-3.78a.68.68,0,0,1,.22-.5.64.64,0,0,1,.51-.2l5.41.18a.7.7,0,0,1,.67.7v3.82l4.12.14v-3.78a.68.68,0,0,1,.22-.5.71.71,0,0,1,.51-.2l5.41.18a.69.69,0,0,1,.67.7v3.82l4.13.14v-3.78a.67.67,0,0,1,.21-.5.73.73,0,0,1,.51-.2l5.41.18a.7.7,0,0,1,.68.7v3.82l4.12.14v-3.78a.71.71,0,0,1,.21-.5.69.69,0,0,1,.51-.2l5.41.18a.7.7,0,0,1,.68.7v3.82l4.12.14v-3.78a.71.71,0,0,1,.21-.5.73.73,0,0,1,.51-.2l5.41.18a.7.7,0,0,1,.68.7v3.82l4.12.14V165a.68.68,0,0,1,.22-.5.73.73,0,0,1,.51-.2l5.41.18a.7.7,0,0,1,.67.7V169l4.12.14v-3.78a.68.68,0,0,1,.22-.5.73.73,0,0,1,.51-.2l5.41.18a.69.69,0,0,1,.67.7v3.82l4.13.14v-3.78a.67.67,0,0,1,.21-.5.7.7,0,0,1,.51-.2l5.41.18a.7.7,0,0,1,.68.7v3.82l4.12.14v-3.78a.67.67,0,0,1,.21-.5.73.73,0,0,1,.51-.2l5.41.18a.7.7,0,0,1,.68.7v3.82l4.12.14v-3.78a.71.71,0,0,1,.21-.5.73.73,0,0,1,.51-.2l5.41.18a.7.7,0,0,1,.68.7v3.82l4.12.14v-3.78a.68.68,0,0,1,.22-.5.69.69,0,0,1,.51-.2l5.41.18a.7.7,0,0,1,.67.7v3.82l7.39.25a.7.7,0,0,1,.68.7V205.2a.68.68,0,0,1-.22.5A.67.67,0,0,1,383.86,205.9ZM210,198.77l173.19,5.71V172.41l-7.39-.24a.7.7,0,0,1-.68-.7v-3.82l-4-.14v3.78a.71.71,0,0,1-.21.51.74.74,0,0,1-.51.19l-5.52-.18a.7.7,0,0,1-.68-.7v-3.82l-4-.13v3.77a.75.75,0,0,1-.21.51.69.69,0,0,1-.51.19l-5.52-.18a.7.7,0,0,1-.68-.7v-3.82l-4-.14v3.78a.68.68,0,0,1-.22.5.67.67,0,0,1-.51.2l-5.52-.18a.7.7,0,0,1-.67-.7v-3.82l-4-.14v3.78a.7.7,0,0,1-.73.7l-5.52-.18a.7.7,0,0,1-.68-.7v-3.82l-4-.14v3.78a.67.67,0,0,1-.21.5.76.76,0,0,1-.51.2l-5.52-.18a.7.7,0,0,1-.68-.7v-3.82l-4-.14v3.78a.7.7,0,0,1-.72.7l-5.52-.18a.7.7,0,0,1-.68-.7v-3.82l-4-.14v3.78a.7.7,0,0,1-.72.7l-5.52-.18a.7.7,0,0,1-.68-.7v-3.83l-4-.13v3.78a.7.7,0,0,1-.72.7l-5.53-.18a.7.7,0,0,1-.67-.7v-3.83l-4-.13v3.78a.68.68,0,0,1-.22.5.75.75,0,0,1-.51.2l-5.52-.18a.7.7,0,0,1-.68-.7V164.4l-4-.13v3.78a.67.67,0,0,1-.21.5.69.69,0,0,1-.51.2l-5.52-.18a.7.7,0,0,1-.68-.7V164l-4-.13v3.78a.67.67,0,0,1-.21.5.69.69,0,0,1-.51.2l-5.52-.18a.7.7,0,0,1-.68-.7v-3.83l-4-.13v3.78a.71.71,0,0,1-.21.5.78.78,0,0,1-.51.2l-5.52-.18a.7.7,0,0,1-.68-.7v-3.83l-4-.13V167a.71.71,0,0,1-.21.5.82.82,0,0,1-.51.2l-5.53-.18a.7.7,0,0,1-.67-.7V163l-4-.13v3.78a.68.68,0,0,1-.22.5.73.73,0,0,1-.51.2l-5.52-.18a.7.7,0,0,1-.67-.7V162.6l-4-.13v3.78a.67.67,0,0,1-.21.5.74.74,0,0,1-.51.2l-7.34-.24Z"/><polygon class="cls-3" points="192.2 168.48 192.2 162.97 197.28 164.32 197.28 169.83 202.46 171.22 202.46 165.7 207.54 167.06 207.54 172.57 212.72 173.95 212.72 168.44 217.8 169.79 217.8 175.31 222.99 176.69 222.99 171.18 228.06 172.53 228.06 178.04 233.25 179.43 233.25 173.91 238.33 175.27 238.33 180.78 243.51 182.16 243.51 176.65 248.59 178.01 248.59 183.52 253.77 184.9 253.77 179.39 258.85 180.74 258.85 186.25 264.03 187.64 264.03 182.13 269.11 183.48 269.11 188.99 274.29 190.37 274.29 184.86 279.37 186.22 279.37 191.73 284.55 193.11 284.55 187.6 289.63 188.95 289.63 194.46 294.81 195.85 294.81 190.34 299.89 191.69 299.89 197.2 305.08 198.58 305.08 193.07 310.15 194.43 310.15 199.94 315.34 201.32 315.34 195.81 320.42 197.16 320.42 202.68 325.6 204.06 325.6 198.55 330.68 199.9 330.68 205.41 335.86 206.79 335.86 201.28 340.94 202.64 340.94 208.15 348.51 210.17 348.51 251.14 184.63 207.43 184.63 166.46 192.2 168.48"/><path class="cls-2" d="M348.51,251.78l-.16,0L184.47,208.05a.65.65,0,0,1-.48-.62v-41a.63.63,0,0,1,.25-.51.66.66,0,0,1,.56-.11l6.76,1.8V163a.64.64,0,0,1,.81-.62l5.07,1.35a.64.64,0,0,1,.48.62v5l3.9,1V165.7a.66.66,0,0,1,.25-.5.63.63,0,0,1,.56-.11l5.08,1.35a.64.64,0,0,1,.47.62v5l3.9,1v-4.68a.64.64,0,0,1,.81-.62l5.08,1.36a.63.63,0,0,1,.47.62v5l3.91,1v-4.68a.64.64,0,0,1,.8-.62l5.08,1.35a.65.65,0,0,1,.48.62v5l3.9,1v-4.68a.63.63,0,0,1,.25-.5.61.61,0,0,1,.55-.11l5.08,1.35a.65.65,0,0,1,.48.62v5l3.9,1v-4.68a.65.65,0,0,1,.25-.51.67.67,0,0,1,.55-.11l5.08,1.36a.64.64,0,0,1,.48.62v5l3.9,1v-4.68a.63.63,0,0,1,.25-.51.65.65,0,0,1,.55-.11l5.08,1.35a.65.65,0,0,1,.48.62v5l3.9,1v-4.68a.63.63,0,0,1,.25-.5.62.62,0,0,1,.56-.11l5.08,1.35a.65.65,0,0,1,.47.62v5l3.9,1v-4.68a.68.68,0,0,1,.25-.51.7.7,0,0,1,.56-.11l5.08,1.36a.63.63,0,0,1,.47.62v5l3.9,1V187.6a.64.64,0,0,1,.81-.62l5.08,1.36a.62.62,0,0,1,.47.61v5l3.9,1v-4.67a.64.64,0,0,1,.81-.62l5.08,1.35a.64.64,0,0,1,.47.62v5l3.91,1v-4.68a.62.62,0,0,1,.25-.5.61.61,0,0,1,.55-.11l5.08,1.35a.65.65,0,0,1,.48.62v5l3.9,1v-4.68a.64.64,0,0,1,.8-.62l5.08,1.36a.63.63,0,0,1,.48.61v5l3.9,1v-4.67a.64.64,0,0,1,.8-.62l5.08,1.35a.65.65,0,0,1,.48.62v5l3.9,1v-4.68a.62.62,0,0,1,.25-.5.62.62,0,0,1,.56-.11L341.1,202a.65.65,0,0,1,.48.62v5l7.1,1.89a.64.64,0,0,1,.47.62v41a.66.66,0,0,1-.64.64ZM185.27,206.94l162.6,43.36V210.66l-7.1-1.89a.65.65,0,0,1-.47-.62v-5l-3.8-1v4.67a.63.63,0,0,1-.25.51.62.62,0,0,1-.56.11L330.51,206a.64.64,0,0,1-.47-.62v-5l-3.8-1v4.68a.62.62,0,0,1-.25.5.62.62,0,0,1-.56.11l-5.18-1.38a.63.63,0,0,1-.47-.62v-5l-3.8-1v4.68a.66.66,0,0,1-.25.51.65.65,0,0,1-.56.11L310,200.56a.64.64,0,0,1-.47-.62v-5l-3.8-1v4.67a.66.66,0,0,1-.25.51.65.65,0,0,1-.56.11l-5.18-1.38a.65.65,0,0,1-.48-.62v-5l-3.8-1v4.68a.62.62,0,0,1-.25.5.64.64,0,0,1-.55.12l-5.18-1.39a.64.64,0,0,1-.48-.62v-5l-3.8-1v4.68a.63.63,0,0,1-.25.51.63.63,0,0,1-.55.11l-5.18-1.38a.65.65,0,0,1-.48-.62v-5l-3.8-1v4.68a.64.64,0,0,1-.8.62l-5.19-1.38a.65.65,0,0,1-.47-.62v-5l-3.8-1v4.68a.63.63,0,0,1-.25.5.61.61,0,0,1-.55.11l-5.19-1.38a.64.64,0,0,1-.47-.62v-5l-3.8-1v4.68a.64.64,0,0,1-.81.62l-5.18-1.39a.62.62,0,0,1-.47-.61v-5l-3.8-1v4.68a.63.63,0,0,1-.25.51.62.62,0,0,1-.56.11l-5.18-1.38a.64.64,0,0,1-.47-.62v-5l-3.8-1v4.68a.66.66,0,0,1-.25.5.62.62,0,0,1-.56.11l-5.18-1.38a.63.63,0,0,1-.47-.62v-5l-3.8-1v4.68a.68.68,0,0,1-.25.51.65.65,0,0,1-.56.11l-5.18-1.39a.63.63,0,0,1-.48-.61v-5l-3.8-1V174a.63.63,0,0,1-.25.51.6.6,0,0,1-.55.11l-5.18-1.38a.65.65,0,0,1-.48-.62v-5l-3.8-1v4.67a.63.63,0,0,1-.25.51.6.6,0,0,1-.55.11l-5.18-1.38a.64.64,0,0,1-.48-.62v-5l-3.8-1v4.68a.62.62,0,0,1-.25.5.64.64,0,0,1-.55.12l-6.77-1.81Z"/><line class="cls-3" x1="184.63" y1="173.33" x2="336.52" y2="214.98"/><path class="cls-2" d="M336.52,215.62l-.17,0L184.46,174a.64.64,0,1,1,.34-1.23l151.89,41.64a.64.64,0,0,1,.44.79A.63.63,0,0,1,336.52,215.62Z"/><polygon class="cls-3" points="207.68 142.63 214.17 241.61 167.78 241.61 169.66 142.63 173.88 142.63 173.81 148.37 178.11 148.37 178.11 142.63 182.33 142.63 182.4 148.37 186.7 148.37 186.56 142.63 190.78 142.63 190.99 148.37 195.29 148.37 195 142.63 199.23 142.63 199.58 148.37 203.88 148.37 203.45 142.63 207.68 142.63"/><path class="cls-2" d="M214.17,242.25H167.79a.64.64,0,0,1-.46-.19.62.62,0,0,1-.18-.46l1.87-99a.63.63,0,0,1,.64-.62h4.23a.6.6,0,0,1,.45.19.64.64,0,0,1,.19.45l-.07,5.1h3v-5.1a.64.64,0,0,1,.64-.64h4.22a.64.64,0,0,1,.64.63l.06,5.11h3l-.12-5.09a.61.61,0,0,1,.18-.46.66.66,0,0,1,.46-.19h4.22a.63.63,0,0,1,.64.61l.19,5.13h3l-.24-5.07a.65.65,0,0,1,.17-.48A.66.66,0,0,1,195,142h4.23a.64.64,0,0,1,.64.6l.31,5.14h3l-.37-5.06a.62.62,0,0,1,.17-.48.63.63,0,0,1,.47-.2h4.22a.65.65,0,0,1,.64.59l6.49,99a.66.66,0,0,1-.17.48A.67.67,0,0,1,214.17,242.25ZM168.44,241h45.05l-6.41-97.7h-2.94l.38,5.06a.66.66,0,0,1-.17.48.65.65,0,0,1-.47.2h-4.3a.64.64,0,0,1-.64-.6l-.31-5.14h-2.95l.24,5.07a.65.65,0,0,1-.17.48.66.66,0,0,1-.46.19H191a.65.65,0,0,1-.64-.61l-.19-5.13h-2.95l.13,5.09a.65.65,0,0,1-.18.46.66.66,0,0,1-.46.19h-4.3a.64.64,0,0,1-.64-.63l-.06-5.11h-2.95v5.1a.64.64,0,0,1-.64.64h-4.3a.6.6,0,0,1-.45-.19.64.64,0,0,1-.19-.45l.07-5.1h-3Z"/><polygon class="cls-3" points="169.66 142.63 167.78 241.61 142.19 241.61 148.69 142.63 152.77 142.63 152.34 148.37 156.63 148.37 156.99 142.63 161.21 142.63 160.93 148.37 165.23 148.37 165.44 142.63 169.66 142.63"/><path class="cls-2" d="M167.79,242.25H142.2a.67.67,0,0,1-.47-.2.66.66,0,0,1-.17-.48l6.49-99a.64.64,0,0,1,.64-.59h4.08a.63.63,0,0,1,.64.68l-.38,5.06h3l.32-5.14a.64.64,0,0,1,.64-.6h4.22a.68.68,0,0,1,.47.19.65.65,0,0,1,.17.48l-.25,5.07h3l.19-5.13a.63.63,0,0,1,.64-.61h4.22a.66.66,0,0,1,.46.19.65.65,0,0,1,.18.46l-1.88,99A.63.63,0,0,1,167.79,242.25ZM142.88,241h24.28l1.85-97.7h-2.95l-.2,5.13a.63.63,0,0,1-.63.61h-4.3a.64.64,0,0,1-.46-.19.62.62,0,0,1-.18-.48l.25-5.07h-2.95l-.32,5.14a.64.64,0,0,1-.64.6h-4.29a.63.63,0,0,1-.47-.2.66.66,0,0,1-.17-.48l.38-5.06h-2.79Z"/><path class="cls-2" d="M208.88,157.27H147.49a.64.64,0,0,1-.64-.64.64.64,0,0,1,.64-.64h61.39a.64.64,0,0,1,.64.64A.64.64,0,0,1,208.88,157.27Z"/><path class="cls-2" d="M212,191.22H144.58a.64.64,0,1,1,0-1.28H212a.64.64,0,1,1,0,1.28Z"/><path class="cls-2" d="M153.19,168.73h0a2.11,2.11,0,0,1,2.11,2.11v11a0,0,0,0,1,0,0h-4.22a0,0,0,0,1,0,0v-11A2.11,2.11,0,0,1,153.19,168.73Z"/><path class="cls-2" d="M155.3,182.58h-4.22a.7.7,0,0,1-.7-.7v-11a2.81,2.81,0,1,1,5.62,0v11A.7.7,0,0,1,155.3,182.58Zm-3.52-1.4h2.82V170.84a1.41,1.41,0,1,0-2.82,0Z"/><path class="cls-2" d="M162.66,168.73h0a2.11,2.11,0,0,1,2.11,2.11v11a0,0,0,0,1,0,0h-4.22a0,0,0,0,1,0,0v-11A2.11,2.11,0,0,1,162.66,168.73Z"/><path class="cls-2" d="M164.77,182.58h-4.22a.7.7,0,0,1-.7-.7v-11a2.81,2.81,0,0,1,5.62,0v11A.7.7,0,0,1,164.77,182.58Zm-3.52-1.4h2.82V170.84a1.41,1.41,0,0,0-2.82,0Z"/><path class="cls-2" d="M181.51,167.33h0a2.11,2.11,0,0,1,2.11,2.11v4.47a0,0,0,0,1,0,0H179.4a0,0,0,0,1,0,0v-4.47A2.11,2.11,0,0,1,181.51,167.33Z"/><path class="cls-2" d="M183.62,174.6H179.4a.7.7,0,0,1-.7-.7v-4.46a2.81,2.81,0,0,1,5.62,0v4.46A.7.7,0,0,1,183.62,174.6Zm-3.52-1.4h2.82v-3.76a1.41,1.41,0,0,0-2.82,0Z"/><path class="cls-2" d="M191,167.33h0a2.11,2.11,0,0,1,2.11,2.11v4.47a0,0,0,0,1,0,0h-4.22a0,0,0,0,1,0,0v-4.47A2.11,2.11,0,0,1,191,167.33Z"/><path class="cls-2" d="M193.09,174.6h-4.22a.7.7,0,0,1-.7-.7v-4.46a2.81,2.81,0,0,1,5.62,0v4.46A.7.7,0,0,1,193.09,174.6Zm-3.52-1.4h2.82v-3.76a1.41,1.41,0,0,0-2.82,0Z"/><path class="cls-2" d="M200.45,167.33h0a2.11,2.11,0,0,1,2.11,2.11v4.47a0,0,0,0,1,0,0h-4.22a0,0,0,0,1,0,0v-4.47a2.11,2.11,0,0,1,2.11-2.11Z"/><path class="cls-2" d="M202.56,174.6h-4.22a.7.7,0,0,1-.7-.7v-4.46a2.81,2.81,0,0,1,5.62,0v4.46A.7.7,0,0,1,202.56,174.6ZM199,173.2h2.82v-3.76a1.41,1.41,0,0,0-2.82,0Z"/><path class="cls-1" d="M172.48,220.79a12.85,12.85,0,0,1,8.36-.65c-3-.83,6.83-13.43,8-14.3,4.72-3.58,10.6-5.18,16.2-2.91,7.86,3.19,14.32,9.47,22.48,11.76,8.74,2.44,20.53-.43,28.36,3.6,3.2,1.65,5.67,4.49,8.91,6.05,7.61,3.67,17.15-.57,24.94,2.71,6,2.54,10.59,9.41,17.12,8.86,2.24-.18,4.3-1.27,6.49-1.73,9-1.89,16.49,6.61,21.75,14.15,2.16,3.09,4.37,6.31,5,10,1,5.73-1.88,11.45-1.91,17.28-.05,10.44,8.63,18.47,15.38,26.43A90.1,90.1,0,0,1,369.66,330c-.59-1.65-34.51-1-38.21-1.16-13.23-.72-26.88-1.11-40-3.17-9-1.41-16.23-4.89-25.54-4.62-12.87.37-25.67,1.84-38.58,1.84H49.18c-6.46,0,5.29-19.06,7-20.87,7.42-7.82,14.6-15,24-20.52,3.33-2,6.86-3.76,9.49-6.61s4.19-7.06,2.72-10.64c6.13,0,12.46,0,18.11-2.39,13.82-5.86,7-30.68,28.89-26.19-3-.61,8.45-6.7,9.91-6.87a19.47,19.47,0,0,1,14.14,3.74C163.9,227.31,167.73,222.78,172.48,220.79Z"/><path class="cls-2" d="M369.66,330.6a.64.64,0,0,1-.51-.26c-1.83-.95-20.59-.9-29.65-.87-4.11,0-7.09,0-8.08,0l-6.78-.34c-11-.55-22.37-1.11-33.28-2.83a92.08,92.08,0,0,1-9.56-2.14c-5.19-1.36-10.1-2.65-15.86-2.47-5.5.16-11.09.52-16.49.88-7.23.47-14.71,1-22.11,1H49.18a2.29,2.29,0,0,1-2.3-1.38c-1.89-4.4,7.44-19.08,8.85-20.57,7.27-7.66,14.58-15,24.12-20.63l1.51-.87a32.4,32.4,0,0,0,7.84-5.62c2.13-2.31,4.09-6.31,2.6-10a.64.64,0,0,1,.06-.6.63.63,0,0,1,.53-.28h0c5.71,0,12.23,0,17.85-2.34,5.43-2.3,7.58-7.81,9.66-13.13,3-7.56,6-15.38,18.46-13.31,1.08-2.29,9.86-6.55,10.85-6.67A20.22,20.22,0,0,1,163,231.35a15.53,15.53,0,0,1,9.28-11.15h0a13.53,13.53,0,0,1,7.41-1c.11-3.52,7.74-13.1,8.79-13.89,5.35-4.07,11.47-5.16,16.82-3a64.42,64.42,0,0,1,9.92,5.45c3.94,2.47,8,5,12.5,6.29,3.71,1,8.12,1.09,12.38,1.15,5.67.07,11.53.14,16.09,2.49a28.29,28.29,0,0,1,4.4,3,26.3,26.3,0,0,0,4.5,3c3.75,1.81,8,1.62,12.42,1.42,4.21-.19,8.56-.38,12.48,1.27a31,31,0,0,1,6.57,4.2c3.32,2.54,6.44,4.94,10.26,4.62a16.29,16.29,0,0,0,3.68-.93,26.15,26.15,0,0,1,2.73-.8c9.64-2,17.41,7.25,22.41,14.41,2.07,3,4.43,6.36,5.12,10.28.6,3.42-.13,6.84-.85,10.15a35.94,35.94,0,0,0-1.05,7.24c0,8.67,6.16,15.7,12.17,22.5,1,1.18,2.07,2.35,3.06,3.52a90.1,90.1,0,0,1,16.22,28.09h0a.64.64,0,0,1-.39.82A.54.54,0,0,1,369.66,330.6Zm-25.27-2.42c15.45,0,21.68.24,24.21.72a89.13,89.13,0,0,0-15.54-26.42c-1-1.16-2-2.33-3-3.5-6.17-7-12.54-14.19-12.49-23.35a37.89,37.89,0,0,1,1.08-7.51c.72-3.33,1.4-6.48.84-9.66-.64-3.64-2.91-6.9-4.91-9.77-4.79-6.86-12.19-15.75-21.1-13.88a22.43,22.43,0,0,0-2.59.76,17.43,17.43,0,0,1-4,1c-4.28.36-7.77-2.3-11.13-4.87a30,30,0,0,0-6.29-4c-3.67-1.55-7.87-1.36-11.93-1.17-4.42.19-9,.4-13-1.55a26.91,26.91,0,0,1-4.72-3.18,27.66,27.66,0,0,0-4.2-2.88c-4.29-2.21-10-2.28-15.52-2.35-4.35-.06-8.84-.12-12.72-1.2-4.66-1.31-8.81-3.92-12.83-6.44a62.47,62.47,0,0,0-9.72-5.34c-4.91-2-10.59-1-15.57,2.82-1.16.88-8.7,10.86-8.28,13.06,0,.1,0,.1.09.12a.64.64,0,0,1-.34,1.23h0a12,12,0,0,0-7.93.62l-.25-.59.25.59c-4.76,2-8.24,6.49-8.65,11.18a.65.65,0,0,1-.39.53.64.64,0,0,1-.64-.08,18.76,18.76,0,0,0-13.67-3.62c-1.15.14-8.62,4.16-9.72,5.66a.64.64,0,0,1,.36.71.63.63,0,0,1-.76.49h0c-12.37-2.53-15.06,4.35-18.16,12.31-2.17,5.58-4.42,11.34-10.35,13.85-5.57,2.35-11.85,2.43-17.46,2.44,1.11,3.95-.93,8-3.15,10.44A33.69,33.69,0,0,1,82,281.15l-1.49.86c-9.41,5.54-16.65,12.82-23.85,20.41-1.56,1.64-10.08,15.74-8.6,19.18.12.28.36.61,1.12.61H227.34c7.36,0,14.81-.49,22-1,5.41-.36,11-.72,16.54-.88,5.95-.16,10.93,1.13,16.22,2.51a93.37,93.37,0,0,0,9.43,2.12c10.84,1.7,22.18,2.27,33.14,2.81l6.79.35c1,0,4.06,0,8,0Zm-205-93.2h0Z"/><path class="cls-3" d="M358.19,143.63l-.64,23.12h58.29V145.53l-30.5-17.85-4.55-2.86L375,121.28S371.89,132.14,358.19,143.63Z"/><path class="cls-2" d="M415.84,167.39H357.55a.63.63,0,0,1-.46-.2.65.65,0,0,1-.18-.46l.64-23.12a.63.63,0,0,1,.23-.47c13.36-11.21,16.56-21.93,16.59-22a.64.64,0,0,1,.38-.42.65.65,0,0,1,.56,0l5.81,3.54,4.56,2.87L416.16,145a.62.62,0,0,1,.32.55v21.22A.64.64,0,0,1,415.84,167.39Zm-57.63-1.28h57V145.9L385,128.23l-4.57-2.87-5.11-3.12c-1,2.72-4.94,11.91-16.52,21.69Z"/><path class="cls-3" d="M375,121.28a51.94,51.94,0,0,0,18.69,25.09h25s-17.09-12.12-21.85-25.09Z"/><path class="cls-2" d="M418.68,147h-25a.63.63,0,0,1-.37-.12,53,53,0,0,1-18.93-25.43.64.64,0,0,1,.61-.82h21.85a.64.64,0,0,1,.6.42c4.63,12.63,21.45,24.67,21.62,24.79a.64.64,0,0,1-.37,1.16Zm-24.8-1.28h22.87c-4.32-3.31-16.23-13.15-20.36-23.81H375.87A52.13,52.13,0,0,0,393.88,145.73Z"/><path class="cls-2" d="M354,146.17a.64.64,0,0,1-.23-1.24c11.72-4.38,19.83-22.16,20.55-23.78V118.5a.64.64,0,1,1,1.28,0v2.78a.7.7,0,0,1-.05.25c-.35.81-8.59,19.84-21.33,24.6A.57.57,0,0,1,354,146.17Z"/><path class="cls-2" d="M399.23,148.32a.63.63,0,0,1-.37-.12C384.47,138,378,121.68,377.92,121.51a.64.64,0,0,1,.37-.83.64.64,0,0,1,.82.37c.07.16,6.42,16.11,20.49,26.11a.63.63,0,0,1,.15.89A.64.64,0,0,1,399.23,148.32Z"/><path class="cls-2" d="M405,148.32a.64.64,0,0,1-.39-.14c-.77-.58-18.82-14.54-22-26.74a.64.64,0,1,1,1.24-.32c3,11.77,21.31,25.91,21.49,26a.65.65,0,0,1,.12.9A.66.66,0,0,1,405,148.32Z"/><path class="cls-2" d="M409.24,148.32a.67.67,0,0,1-.42-.16c-.78-.69-19.18-17-21.92-26.71a.65.65,0,0,1,.45-.79.64.64,0,0,1,.78.45c2.64,9.3,21.35,25.92,21.54,26.09a.64.64,0,0,1-.43,1.12Z"/><path class="cls-2" d="M414.48,148.32a.67.67,0,0,1-.4-.14c-.16-.13-16.26-13.15-21.91-26.65a.64.64,0,0,1,.34-.84.66.66,0,0,1,.84.34c5.52,13.21,21.37,26,21.53,26.15a.64.64,0,0,1,.1.9A.65.65,0,0,1,414.48,148.32Z"/><path class="cls-2" d="M396.83,121.92a.64.64,0,0,1-.64-.64v-2.15a.64.64,0,1,1,1.28,0v2.15A.64.64,0,0,1,396.83,121.92Z"/><path class="cls-2" d="M380.36,139.63h2.9a0,0,0,0,1,0,0v4.44a1.45,1.45,0,0,1-1.45,1.45h0a1.45,1.45,0,0,1-1.45-1.45v-4.44a0,0,0,0,1,0,0Z" transform="translate(763.63 285.16) rotate(-180)"/><path class="cls-2" d="M383.27,146.23h-2.91a.7.7,0,0,1-.7-.7v-4.44a2.16,2.16,0,1,1,4.31,0v4.44A.7.7,0,0,1,383.27,146.23Zm-2.21-1.4h1.51v-3.74a.76.76,0,1,0-1.51,0Z"/><path class="cls-2" d="M373.53,139.63h2.9a0,0,0,0,1,0,0v4.44a1.45,1.45,0,0,1-1.45,1.45h0a1.45,1.45,0,0,1-1.45-1.45v-4.44A0,0,0,0,1,373.53,139.63Z" transform="translate(749.96 285.16) rotate(-180)"/><path class="cls-2" d="M376.43,146.23h-2.9a.7.7,0,0,1-.7-.7v-4.44a2.15,2.15,0,1,1,4.3,0v4.44A.7.7,0,0,1,376.43,146.23Zm-2.2-1.4h1.5v-3.74a.75.75,0,1,0-1.5,0Z"/><path class="cls-2" d="M366.7,139.63h2.9a0,0,0,0,1,0,0v4.44a1.45,1.45,0,0,1-1.45,1.45h0a1.45,1.45,0,0,1-1.45-1.45v-4.44A0,0,0,0,1,366.7,139.63Z" transform="translate(736.3 285.16) rotate(-180)"/><path class="cls-2" d="M369.6,146.23h-2.91a.7.7,0,0,1-.7-.7v-4.44a2.16,2.16,0,1,1,4.31,0v4.44A.7.7,0,0,1,369.6,146.23Zm-2.21-1.4h1.51v-3.74a.76.76,0,1,0-1.51,0Z"/><polygon class="cls-3" points="423.91 155.16 433.97 300 362.39 300 365.29 155.16 371.81 155.16 371.69 162.83 378.31 162.83 378.32 155.16 384.83 155.16 384.94 162.83 391.56 162.83 391.35 155.16 397.86 155.16 398.18 162.83 404.8 162.83 404.37 155.16 410.88 155.16 411.42 162.83 418.05 162.83 417.4 155.16 423.91 155.16"/><path class="cls-2" d="M434,300.64H362.39a.61.61,0,0,1-.46-.2.6.6,0,0,1-.18-.46l2.9-144.83a.65.65,0,0,1,.64-.63h6.52a.64.64,0,0,1,.45.19.61.61,0,0,1,.18.46l-.1,7h5.34v-7a.64.64,0,0,1,.64-.64h6.51a.64.64,0,0,1,.64.63l.1,7h5.33l-.19-7a.63.63,0,0,1,.64-.66h6.51a.65.65,0,0,1,.64.61l.29,7.06h5.34l-.4-7a.65.65,0,0,1,.17-.48.63.63,0,0,1,.47-.2h6.51a.64.64,0,0,1,.64.59l.5,7.08h5.33l-.59-7a.66.66,0,0,1,.17-.48.61.61,0,0,1,.47-.21h6.51a.64.64,0,0,1,.64.6L434.61,300a.65.65,0,0,1-.64.69ZM363,299.36h70.25l-10-143.56h-5.22l.6,7a.69.69,0,0,1-.17.49.63.63,0,0,1-.47.2h-6.63a.65.65,0,0,1-.64-.59l-.5-7.08h-5.23l.39,7a.62.62,0,0,1-.17.47.63.63,0,0,1-.47.2h-6.62a.65.65,0,0,1-.64-.61l-.29-7.06H392l.2,7a.62.62,0,0,1-.18.46.66.66,0,0,1-.46.19h-6.62a.64.64,0,0,1-.64-.63l-.1-7H379v7a.64.64,0,0,1-.64.64h-6.63a.6.6,0,0,1-.45-.19.66.66,0,0,1-.19-.46l.11-7h-5.24Z"/><polygon class="cls-3" points="365.29 155.16 362.39 300 322.9 300 332.96 155.16 339.24 155.16 338.59 162.83 345.21 162.83 345.75 155.16 352.26 155.16 351.83 162.83 358.45 162.83 358.78 155.16 365.29 155.16"/><path class="cls-2" d="M362.39,300.64H322.9a.65.65,0,0,1-.64-.69l10.06-144.83a.64.64,0,0,1,.64-.6h6.28a.61.61,0,0,1,.47.21.66.66,0,0,1,.17.48l-.6,7h5.33l.5-7.08a.65.65,0,0,1,.64-.59h6.52a.63.63,0,0,1,.46.2.65.65,0,0,1,.17.48l-.4,7h5.34l.3-7.06a.65.65,0,0,1,.64-.61h6.51a.64.64,0,0,1,.46.19.61.61,0,0,1,.18.46L363,300A.64.64,0,0,1,362.39,300.64Zm-38.81-1.28h38.18l2.88-143.56H359.4l-.31,7.06a.63.63,0,0,1-.64.61h-6.62a.63.63,0,0,1-.47-.2.62.62,0,0,1-.17-.47l.4-7h-5.24l-.51,7.08a.63.63,0,0,1-.63.59h-6.62a.67.67,0,0,1-.48-.2.64.64,0,0,1-.16-.49l.6-7h-5Z"/><path class="cls-2" d="M425.76,174.48H331.11a.64.64,0,1,1,0-1.27h94.65a.64.64,0,1,1,0,1.27Z"/><path class="cls-2" d="M430.58,268.7h-104a.64.64,0,0,1,0-1.28h104a.64.64,0,0,1,0,1.28Z"/><path class="cls-2" d="M339.67,190h.45a3,3,0,0,1,3,3v14.53a0,0,0,0,1,0,0h-6.51a0,0,0,0,1,0,0V193A3,3,0,0,1,339.67,190Z"/><path class="cls-2" d="M343.15,208.25h-6.51a.7.7,0,0,1-.7-.7V193a3.73,3.73,0,0,1,3.73-3.73h.45a3.73,3.73,0,0,1,3.73,3.73v14.52A.7.7,0,0,1,343.15,208.25Zm-5.81-1.4h5.11V193a2.33,2.33,0,0,0-2.33-2.33h-.45a2.33,2.33,0,0,0-2.33,2.33Z"/><path class="cls-2" d="M354.27,190h.45a3,3,0,0,1,3,3v14.53a0,0,0,0,1,0,0h-6.51a0,0,0,0,1,0,0V193A3,3,0,0,1,354.27,190Z"/><path class="cls-2" d="M357.75,208.25h-6.51a.7.7,0,0,1-.7-.7V193a3.73,3.73,0,0,1,3.73-3.73h.45a3.73,3.73,0,0,1,3.73,3.73v14.52A.7.7,0,0,1,357.75,208.25Zm-5.81-1.4h5.11V193a2.33,2.33,0,0,0-2.33-2.33h-.45a2.33,2.33,0,0,0-2.33,2.33Z"/><path class="cls-2" d="M383.34,188.13h.45a3,3,0,0,1,3,3v5.75a0,0,0,0,1,0,0h-6.51a0,0,0,0,1,0,0v-5.75A3,3,0,0,1,383.34,188.13Z"/><path class="cls-2" d="M386.82,197.61h-6.51a.7.7,0,0,1-.7-.7v-5.75a3.73,3.73,0,0,1,3.73-3.73h.45a3.73,3.73,0,0,1,3.73,3.73v5.75A.7.7,0,0,1,386.82,197.61Zm-5.81-1.4h5.11v-5.05a2.33,2.33,0,0,0-2.33-2.33h-.45a2.33,2.33,0,0,0-2.33,2.33Z"/><path class="cls-2" d="M397.94,188.13h.45a3,3,0,0,1,3,3v5.75a0,0,0,0,1,0,0h-6.51a0,0,0,0,1,0,0v-5.75A3,3,0,0,1,397.94,188.13Z"/><path class="cls-2" d="M401.42,197.61h-6.51a.7.7,0,0,1-.7-.7v-5.75a3.73,3.73,0,0,1,3.73-3.73h.45a3.73,3.73,0,0,1,3.73,3.73v5.75A.7.7,0,0,1,401.42,197.61Zm-5.81-1.4h5.11v-5.05a2.33,2.33,0,0,0-2.33-2.33h-.45a2.33,2.33,0,0,0-2.33,2.33Z"/><path class="cls-2" d="M412.54,188.13H413a3,3,0,0,1,3,3v5.75a0,0,0,0,1,0,0h-6.51a0,0,0,0,1,0,0v-5.75a3,3,0,0,1,3-3Z"/><path class="cls-2" d="M416,197.61h-6.51a.7.7,0,0,1-.7-.7v-5.75a3.73,3.73,0,0,1,3.73-3.73H413a3.73,3.73,0,0,1,3.73,3.73v5.75A.7.7,0,0,1,416,197.61Zm-5.81-1.4h5.11v-5.05a2.33,2.33,0,0,0-2.33-2.33h-.45a2.33,2.33,0,0,0-2.33,2.33Z"/><polygon class="cls-3" points="341.77 225.64 341.77 217.42 334.19 219.44 334.19 227.66 326.46 229.73 326.46 221.5 318.88 223.53 318.88 231.75 311.15 233.81 311.15 225.59 303.57 227.61 303.57 235.83 295.84 237.89 295.84 229.67 288.26 231.69 288.26 239.91 280.53 241.98 280.53 233.75 272.95 235.78 272.95 244 265.21 246.06 265.21 237.84 257.64 239.86 257.64 248.08 249.91 250.15 249.91 241.92 242.33 243.94 242.33 252.17 234.59 254.23 234.59 246.01 227.02 248.03 227.02 256.25 219.28 258.31 219.28 250.09 211.71 252.11 211.71 260.33 203.97 262.4 203.97 254.17 196.39 256.19 196.39 264.42 188.66 266.48 188.66 258.26 181.08 260.28 181.08 268.5 173.35 270.56 173.35 262.34 165.77 264.36 165.77 272.58 158.04 274.65 158.04 266.43 150.46 268.45 150.46 276.67 142.73 278.73 142.73 270.51 135.15 272.53 135.15 280.75 127.42 282.81 127.42 274.59 119.84 276.61 119.84 284.84 108.54 287.85 108.54 371.09 353.07 305.87 353.07 222.63 341.77 225.64"/><path class="cls-2" d="M108.54,371.73a.7.7,0,0,1-.39-.13.68.68,0,0,1-.25-.51V287.85a.65.65,0,0,1,.48-.62l10.82-2.88v-7.74a.63.63,0,0,1,.48-.61l7.57-2a.63.63,0,0,1,.56.11.62.62,0,0,1,.25.5V282l6.45-1.72v-7.73a.65.65,0,0,1,.48-.62l7.57-2a.65.65,0,0,1,.56.11.63.63,0,0,1,.25.51v7.39l6.45-1.72v-7.73a.64.64,0,0,1,.48-.62l7.57-2a.62.62,0,0,1,.56.11.63.63,0,0,1,.25.51v7.39l6.45-1.73v-7.73a.65.65,0,0,1,.48-.62l7.58-2a.64.64,0,0,1,.55.11.65.65,0,0,1,.25.51v7.39l6.45-1.72v-7.73a.65.65,0,0,1,.48-.62l7.58-2a.61.61,0,0,1,.55.11.63.63,0,0,1,.25.51v7.39l6.46-1.72v-7.74a.62.62,0,0,1,.47-.61l7.58-2a.61.61,0,0,1,.55.11.63.63,0,0,1,.25.5v7.39l6.45-1.72v-7.73a.65.65,0,0,1,.48-.62l7.58-2a.64.64,0,0,1,.8.62v7.39l6.46-1.72V248a.63.63,0,0,1,.47-.62l7.58-2a.6.6,0,0,1,.55.11.63.63,0,0,1,.25.51v7.39l6.46-1.72v-7.74a.62.62,0,0,1,.47-.61l7.58-2a.64.64,0,0,1,.55.12.63.63,0,0,1,.26.5v7.39l6.45-1.72v-7.73a.64.64,0,0,1,.47-.62l7.58-2a.6.6,0,0,1,.55.11.63.63,0,0,1,.25.51v7.39l6.46-1.72v-7.73a.63.63,0,0,1,.47-.62l7.58-2a.63.63,0,0,1,.56.11.66.66,0,0,1,.25.51v7.38l6.45-1.72v-7.73a.62.62,0,0,1,.47-.61l7.58-2a.66.66,0,0,1,.56.11.68.68,0,0,1,.25.51v7.39l6.45-1.72v-7.73a.65.65,0,0,1,.47-.62l7.58-2a.64.64,0,0,1,.81.62V233l6.45-1.72v-7.73a.64.64,0,0,1,.47-.62l7.58-2a.62.62,0,0,1,.56.11.63.63,0,0,1,.25.51v7.38l6.45-1.72v-7.73a.65.65,0,0,1,.48-.62l7.57-2a.64.64,0,0,1,.81.62v7.39L352.9,222a.65.65,0,0,1,.56.11.66.66,0,0,1,.25.51v83.24a.65.65,0,0,1-.48.62L108.71,371.71Zm.64-83.39v81.92l243.25-64.88V223.46l-10.5,2.8a.64.64,0,0,1-.8-.62v-7.39l-6.3,1.68v7.73a.63.63,0,0,1-.47.62l-7.74,2.07a.64.64,0,0,1-.55-.12.62.62,0,0,1-.25-.5v-7.39l-6.3,1.68v7.73a.65.65,0,0,1-.47.62l-7.74,2.06a.64.64,0,0,1-.8-.62v-7.39l-6.3,1.68v7.73a.65.65,0,0,1-.47.62L296,238.51a.64.64,0,0,1-.8-.62V230.5l-6.3,1.68v7.74a.63.63,0,0,1-.48.61l-7.73,2.07a.64.64,0,0,1-.55-.12.62.62,0,0,1-.25-.5v-7.39l-6.3,1.68V244a.65.65,0,0,1-.48.62l-7.73,2.06a.63.63,0,0,1-.55-.11.63.63,0,0,1-.25-.51v-7.39l-6.3,1.68v7.73a.64.64,0,0,1-.48.62l-7.73,2.06a.6.6,0,0,1-.55-.11.63.63,0,0,1-.25-.51v-7.38l-6.3,1.68v7.73a.63.63,0,0,1-.48.61l-7.73,2.07a.65.65,0,0,1-.56-.11.68.68,0,0,1-.25-.51v-7.39l-6.29,1.68v7.73a.65.65,0,0,1-.48.62l-7.73,2.06a.65.65,0,0,1-.56-.11.66.66,0,0,1-.25-.51v-7.39l-6.3,1.68v7.73a.63.63,0,0,1-.47.62L204.14,263a.62.62,0,0,1-.56-.11.63.63,0,0,1-.25-.5V255l-6.3,1.68v7.73a.62.62,0,0,1-.47.61l-7.73,2.07a.65.65,0,0,1-.56-.11.66.66,0,0,1-.25-.51v-7.39l-6.3,1.68v7.73a.64.64,0,0,1-.47.62l-7.73,2.06a.62.62,0,0,1-.56-.11.63.63,0,0,1-.25-.51v-7.39l-6.3,1.68v7.73a.63.63,0,0,1-.47.62l-7.73,2.07a.63.63,0,0,1-.56-.12.62.62,0,0,1-.25-.5v-7.39l-6.3,1.68v7.73a.64.64,0,0,1-.47.62l-7.73,2.06a.65.65,0,0,1-.56-.11.63.63,0,0,1-.25-.51v-7.39l-6.3,1.68v7.73a.64.64,0,0,1-.47.62l-7.74,2.06a.61.61,0,0,1-.55-.11.63.63,0,0,1-.25-.5v-7.39l-6.3,1.67v7.74a.63.63,0,0,1-.47.61Z"/><line class="cls-3" x1="353.07" y1="232.89" x2="126.44" y2="295.03"/><path class="cls-2" d="M126.44,295.67a.64.64,0,0,1-.17-1.26L352.9,232.27a.64.64,0,0,1,.34,1.24L126.61,295.64Z"/><polygon class="cls-3" points="140.71 241.61 151.64 369.08 73.54 369.08 76.7 241.61 83.81 241.61 83.69 251.29 90.92 251.29 90.92 241.61 98.03 241.61 98.15 251.29 105.39 251.29 105.15 241.61 112.26 241.61 112.61 251.29 119.84 251.29 119.37 241.61 126.48 241.61 127.07 251.29 134.31 251.29 133.6 241.61 140.71 241.61"/><path class="cls-2" d="M151.64,369.72H73.54a.66.66,0,0,1-.46-.19.65.65,0,0,1-.18-.46l3.16-127.48a.64.64,0,0,1,.64-.62h7.11a.66.66,0,0,1,.46.19.65.65,0,0,1,.18.46l-.11,9h5.94v-9a.64.64,0,0,1,.64-.64H98a.64.64,0,0,1,.64.63l.11,9.05h6l-.22-9a.65.65,0,0,1,.18-.46.66.66,0,0,1,.46-.19h7.11a.64.64,0,0,1,.64.61l.33,9.07h5.94l-.44-9a.62.62,0,0,1,.18-.47.63.63,0,0,1,.46-.2h7.11a.64.64,0,0,1,.64.6l.55,9.08h6l-.66-9a.66.66,0,0,1,.17-.48.63.63,0,0,1,.47-.2h7.11a.64.64,0,0,1,.64.58L152.28,369a.64.64,0,0,1-.16.49A.67.67,0,0,1,151.64,369.72ZM74.2,368.44H151L140.12,242.25h-5.84l.67,9a.65.65,0,0,1-.17.48.61.61,0,0,1-.47.21h-7.24a.65.65,0,0,1-.64-.6l-.55-9.08H120l.44,9a.63.63,0,0,1-.64.67h-7.23a.63.63,0,0,1-.63-.62l-.34-9.06h-5.83l.22,9a.68.68,0,0,1-.19.47.64.64,0,0,1-.45.19H98.15a.64.64,0,0,1-.64-.63l-.11-9.05H91.56v9a.64.64,0,0,1-.64.64H83.69a.64.64,0,0,1-.45-.19.66.66,0,0,1-.19-.46l.11-9H77.33Z"/><polygon class="cls-3" points="76.7 241.61 73.54 369.08 30.46 369.08 41.39 241.61 48.25 241.61 47.54 251.29 54.77 251.29 55.36 241.61 62.48 241.61 62 251.29 69.23 251.29 69.59 241.61 76.7 241.61"/><path class="cls-2" d="M73.54,369.72H30.46a.67.67,0,0,1-.48-.2.64.64,0,0,1-.16-.49L40.76,241.55a.63.63,0,0,1,.63-.58h6.86a.64.64,0,0,1,.64.69l-.66,9h5.94l.56-9.08a.63.63,0,0,1,.63-.6h7.11a.63.63,0,0,1,.47.2.61.61,0,0,1,.17.47l-.44,9h6l.33-9.07a.65.65,0,0,1,.64-.61H76.7a.66.66,0,0,1,.46.19.62.62,0,0,1,.18.46L74.18,369.1A.63.63,0,0,1,73.54,369.72Zm-42.39-1.28H72.92l3.13-126.19H70.21l-.34,9.06a.63.63,0,0,1-.64.62H62a.63.63,0,0,1-.64-.67l.44-9H56l-.56,9.08a.64.64,0,0,1-.64.6H47.54a.61.61,0,0,1-.47-.21.65.65,0,0,1-.17-.48l.67-9H42Z"/><path class="cls-2" d="M142.73,265.82H39.37a.64.64,0,0,1,0-1.28H142.73a.64.64,0,0,1,0,1.28Z"/><path class="cls-2" d="M148,323H34.47a.64.64,0,0,1,0-1.28H148a.64.64,0,1,1,0,1.28Z"/><path class="cls-2" d="M49,285.56h0a3.55,3.55,0,0,1,3.55,3.55V307.7a0,0,0,0,1,0,0H45.41a0,0,0,0,1,0,0V289.11A3.55,3.55,0,0,1,49,285.56Z"/><path class="cls-2" d="M52.52,308.4H45.41a.7.7,0,0,1-.7-.7V289.11a4.26,4.26,0,0,1,8.51,0V307.7A.7.7,0,0,1,52.52,308.4ZM46.11,307h5.71V289.11a2.86,2.86,0,0,0-5.71,0Z"/><path class="cls-2" d="M64.91,285.56h0a3.55,3.55,0,0,1,3.55,3.55V307.7a0,0,0,0,1,0,0H61.35a0,0,0,0,1,0,0V289.11A3.55,3.55,0,0,1,64.91,285.56Z"/><path class="cls-2" d="M68.46,308.4h-7.1a.7.7,0,0,1-.7-.7V289.11a4.25,4.25,0,0,1,8.5,0V307.7A.7.7,0,0,1,68.46,308.4Zm-6.4-1.4h5.7V289.11a2.85,2.85,0,0,0-5.7,0Z"/><path class="cls-2" d="M96.65,283.2h0a3.55,3.55,0,0,1,3.55,3.55v7.52a0,0,0,0,1,0,0H93.1a0,0,0,0,1,0,0v-7.52A3.55,3.55,0,0,1,96.65,283.2Z"/><path class="cls-2" d="M100.21,295H93.1a.7.7,0,0,1-.7-.7v-7.52a4.26,4.26,0,0,1,8.51,0v7.52A.7.7,0,0,1,100.21,295Zm-6.41-1.4h5.71v-6.82a2.86,2.86,0,0,0-5.71,0Z"/><path class="cls-2" d="M112.59,283.2h0a3.55,3.55,0,0,1,3.55,3.55v7.52a0,0,0,0,1,0,0H109a0,0,0,0,1,0,0v-7.52A3.55,3.55,0,0,1,112.59,283.2Z"/><path class="cls-2" d="M116.15,295H109a.7.7,0,0,1-.7-.7v-7.52a4.26,4.26,0,0,1,8.51,0v7.52A.7.7,0,0,1,116.15,295Zm-6.41-1.4h5.71v-6.82a2.86,2.86,0,0,0-5.71,0Z"/><path class="cls-2" d="M128.54,283.2h0a3.55,3.55,0,0,1,3.55,3.55v7.52a0,0,0,0,1,0,0H125a0,0,0,0,1,0,0v-7.52A3.55,3.55,0,0,1,128.54,283.2Z"/><path class="cls-2" d="M132.09,295H125a.7.7,0,0,1-.7-.7v-7.52a4.26,4.26,0,0,1,8.51,0v7.52A.7.7,0,0,1,132.09,295Zm-6.41-1.4h5.71v-6.82a2.86,2.86,0,0,0-5.71,0Z"/><path class="cls-2" d="M151.09,247.05l-.15,0a.63.63,0,0,1-.47-.77,12.42,12.42,0,0,1,9.33-9.06,25.64,25.64,0,0,1,4.09-.4c2.24-.1,4.36-.19,6.14-1.24a13.24,13.24,0,0,0,2.34-1.95c.21-.21.41-.41.63-.61a26.28,26.28,0,0,1,26.52-5.39.64.64,0,1,1-.44,1.2,25,25,0,0,0-25.21,5.13l-.61.58a13.41,13.41,0,0,1-2.58,2.14c-2.06,1.22-4.44,1.32-6.74,1.42a23.39,23.39,0,0,0-3.87.37,11.12,11.12,0,0,0-8.36,8.11A.64.64,0,0,1,151.09,247.05Z"/><path class="cls-2" d="M92.3,223.77a.64.64,0,0,1-.23-1.24c5.43-2.07,11.09-4.9,11.87-10.13a13.16,13.16,0,0,0,.13-1.53,9.76,9.76,0,0,1,.49-3c.72-1.85,2.37-3,4.13-4.16,6.21-4,12.86-7.83,20-7a.63.63,0,0,1,.55.71.62.62,0,0,1-.71.55c-6.74-.81-13.17,2.9-19.18,6.77-1.64,1.06-3,2.05-3.62,3.54a8.4,8.4,0,0,0-.41,2.61c0,.55-.06,1.1-.14,1.65-.88,5.88-6.91,8.93-12.68,11.14A.66.66,0,0,1,92.3,223.77Z"/><path class="cls-4" d="M172.55,306.05a.7.7,0,0,1-.22-1.37l25.47-8.47a.7.7,0,0,1,.88.45.69.69,0,0,1-.44.88L172.77,306A.57.57,0,0,1,172.55,306.05Z"/><path class="cls-4" d="M180.38,310a.7.7,0,0,1-.7-.7v-6.6a.7.7,0,1,1,1.4,0v6.6A.7.7,0,0,1,180.38,310Z"/><path class="cls-4" d="M190.34,300.13a.7.7,0,0,1-.7-.7v-5.18a.7.7,0,0,1,1.4,0v5.18A.7.7,0,0,1,190.34,300.13Z"/><path class="cls-4" d="M396.6,225.8h-18a.7.7,0,0,1,0-1.4h18a.7.7,0,0,1,0,1.4Z"/><path class="cls-4" d="M385.53,229.4a.7.7,0,0,1-.7-.7v-3.6a.7.7,0,1,1,1.4,0v3.6A.7.7,0,0,1,385.53,229.4Z"/><path class="cls-4" d="M391.91,225.8a.7.7,0,0,1-.7-.7v-3.73a.7.7,0,1,1,1.4,0v3.73A.7.7,0,0,1,391.91,225.8Z"/><path class="cls-4" d="M418,245.09H401.42a.7.7,0,1,1,0-1.4H418a.7.7,0,0,1,0,1.4Z"/><path class="cls-4" d="M411.27,245.09a.7.7,0,0,1-.7-.7v-7.46a.7.7,0,0,1,1.4,0v7.46A.7.7,0,0,1,411.27,245.09Z"/><path class="cls-4" d="M94.61,336.47H84.19a.7.7,0,0,1-.7-.7v-4.24a.7.7,0,0,1,.7-.7H86.7a.7.7,0,1,1,0,1.4H84.89v2.84h9.72a.7.7,0,1,1,0,1.4Z"/><path class="cls-4" d="M316.09,253.59a.7.7,0,0,1-.16-1.38l19-4.56a.69.69,0,0,1,.84.51.7.7,0,0,1-.52.85l-19,4.56Z"/><path class="cls-4" d="M329.8,255.45a.7.7,0,0,1-.7-.7v-5.16a.7.7,0,1,1,1.4,0v5.16A.7.7,0,0,1,329.8,255.45Z"/><path class="cls-4" d="M230.81,295.79a.7.7,0,0,1-.25-1.36l17.38-6.35a.7.7,0,1,1,.48,1.31l-17.37,6.36A.71.71,0,0,1,230.81,295.79Z"/><path class="cls-4" d="M242.39,291.55a.7.7,0,0,1-.7-.7v-5.56a.7.7,0,1,1,1.4,0v5.56A.7.7,0,0,1,242.39,291.55Z"/><path class="cls-4" d="M258.21,205.9l-.17,0-12.74-3.32a.71.71,0,0,1-.5-.86.69.69,0,0,1,.85-.5l12.74,3.32a.7.7,0,0,1-.18,1.38Z"/><path class="cls-4" d="M249.12,203.53a.7.7,0,0,1-.7-.7v-3.74a.7.7,0,0,1,1.4,0v3.74A.7.7,0,0,1,249.12,203.53Z"/><path class="cls-4" d="M254.4,207.75a.7.7,0,0,1-.7-.7v-2.84a.7.7,0,0,1,1.4,0v2.84A.7.7,0,0,1,254.4,207.75Z"/><path class="cls-4" d="M160.55,210.9h-9.47a.7.7,0,1,1,0-1.4h9.47a.7.7,0,1,1,0,1.4Z"/><path class="cls-4" d="M155.3,210.9a.7.7,0,0,1-.7-.7v-4.57a.7.7,0,0,1,1.4,0v4.57A.7.7,0,0,1,155.3,210.9Z"/><path class="cls-4" d="M195.32,184.17H191a.7.7,0,0,1-.7-.7v-1.59a.7.7,0,1,1,1.4,0v.89h3.64a.7.7,0,0,1,0,1.4Z"/><path class="cls-4" d="M346.44,181.55h-6.55a.7.7,0,1,1,0-1.4h6.55a.7.7,0,0,1,0,1.4Z"/><path class="cls-4" d="M308.37,218.12l-.18,0-14.92-4.16a.69.69,0,0,1-.49-.86.7.7,0,0,1,.86-.49l14.92,4.16a.7.7,0,0,1-.19,1.37Z"/><path class="cls-4" d="M299.63,223.93a.7.7,0,0,1-.7-.7v-7.89a.7.7,0,1,1,1.4,0v7.89A.7.7,0,0,1,299.63,223.93Z"/><path class="cls-2" d="M232,229h0c-2.66,0-4.64-1.8-6.55-3.51a15.44,15.44,0,0,0-4.06-2.93c-2.46-1-5.16-.52-8,0a24.24,24.24,0,0,1-5.94.63,22.74,22.74,0,0,1-7.26-2.11,33.9,33.9,0,0,0-4.52-1.63,9.59,9.59,0,0,0-7.17.89,4.37,4.37,0,0,0-2.09,2.92.64.64,0,0,1-.75.5.63.63,0,0,1-.51-.75,5.67,5.67,0,0,1,2.67-3.75,10.88,10.88,0,0,1,8.17-1.05,35.32,35.32,0,0,1,4.69,1.69,21.61,21.61,0,0,0,6.85,2,23,23,0,0,0,5.62-.6c2.91-.55,5.92-1.12,8.74.06a16.18,16.18,0,0,1,4.42,3.16c1.82,1.62,3.54,3.15,5.72,3.18a.64.64,0,0,1,.63.65A.64.64,0,0,1,232,229Z"/><path class="cls-4" d="M68,357.21H52.86a.7.7,0,0,1,0-1.4H68a.7.7,0,0,1,0,1.4Z"/><path class="cls-4" d="M56.39,357.21a.71.71,0,0,1-.7-.7v-4.38a.7.7,0,0,1,1.4,0v4.38A.7.7,0,0,1,56.39,357.21Z"/></g><g id="Foliage"><path class="cls-1" d="M472.92,381.5a16.82,16.82,0,0,0,3.09-4.59c2.52-5.39,3.06-12.45,2.09-18.55-.56-3.53-1.79-7.15-4.38-9.43-5.2-4.61-15.12-3.53-16.88-10.5-1.32-5.23,3.8-10.38,2.79-15.69-1.12-5.86-8.55-7.54-11.44-12.67-1.71-3-1.56-6.81-2.27-10.27-2.32-11.22-11.4-13.64-17.67-21.18-5.05-6.09-5.3-16.24-12.37-20.6-9.9-6.11-21.72,8.32-32.42,4.52-3.39-1.2-6.12-4.1-9.19-6.14a20.69,20.69,0,0,0-21.88-.74c-4.07,2.36-7.68,6.16-12.16,7-3.47.62-7-.65-10.4-1.36-12.51-2.56-26,2.77-34.62,13.67C293,277.78,291,281,288.15,283c-3.13,2.18-6.92,2.57-10.56,2.89-8.59.76-17.92,1.8-24.19,8.7-5.38,5.9-7.31,14.85-12.76,20.67s-12.91,7.41-19.78,10.21c-12.76,5.2-20.47,21.73-35,21.7-7,0-13.77-4.06-20.82-3.91-6.66.14-13.16,4.32-16.83,10.82-12.59-7.31-27.14-14.75-40.16-8.57-6.35,3-11.45,9-17.9,11.68-15,6.27-32.68-6.66-47,1.32-4.39,2.43-7.89,6.58-11.29,10.63L21.45,381.5Z"/><path class="cls-2" d="M472.92,382.14H21.45a.64.64,0,0,1-.49-1.05l10.35-12.37c3.25-3.87,6.92-8.26,11.47-10.78,7.68-4.26,16.35-2.7,24.72-1.19,7.56,1.36,15.39,2.77,22.4-.16,3.3-1.38,6.32-3.71,9.25-5.95a49.28,49.28,0,0,1,8.61-5.71c13-6.18,27.54.94,40.21,8.27,3.85-6.41,10.33-10.45,17.05-10.59,3.68-.07,7.31,1,10.8,2a37.26,37.26,0,0,0,10,1.94h0c8.29,0,14.23-5.49,20.52-11.3,4.35-4,8.85-8.17,14.21-10.35,1.58-.64,3.2-1.22,4.76-1.78,5.44-1.95,10.58-3.79,14.79-8.28,2.69-2.87,4.56-6.64,6.37-10.28s3.67-7.4,6.38-10.38c6.17-6.77,14.8-8,24.62-8.91,3.36-.29,7.16-.63,10.24-2.78a25.23,25.23,0,0,0,5.35-5.84c.52-.7,1-1.4,1.57-2.07,8.74-11,22.57-16.51,35.26-13.9.79.16,1.59.35,2.38.54,2.69.65,5.23,1.27,7.77.81,2.87-.52,5.36-2.32,8-4.22a45.88,45.88,0,0,1,4-2.67,21.21,21.21,0,0,1,22.55.75c1.06.71,2.08,1.51,3.07,2.29a22,22,0,0,0,6,3.79c4.84,1.71,10.09-.55,15.18-2.74,5.84-2.52,11.87-5.11,17.36-1.73,4.33,2.67,6.21,7.41,8,12,1.22,3.1,2.49,6.31,4.52,8.75a46.55,46.55,0,0,0,6.93,6.4c4.78,3.83,9.29,7.45,10.86,15.06.23,1.12.38,2.27.52,3.39a17.88,17.88,0,0,0,1.69,6.7c1.19,2.11,3.27,3.66,5.27,5.16,2.74,2,5.56,4.15,6.24,7.7.53,2.78-.49,5.46-1.48,8.05s-1.94,5.13-1.32,7.61c1,3.82,4.73,5,8.72,6.34,2.84.93,5.77,1.89,8,3.83s3.87,5.36,4.58,9.81c1.07,6.7.27,13.77-2.14,18.92a17.9,17.9,0,0,1-3.2,4.76A.63.63,0,0,1,472.92,382.14Zm-450.1-1.28H472.65a16.7,16.7,0,0,0,2.78-4.22c2.3-4.93,3.06-11.72,2-18.18-.66-4.15-2.07-7.19-4.17-9s-4.8-2.68-7.52-3.57c-4.14-1.35-8.42-2.75-9.56-7.25-.72-2.87.34-5.66,1.37-8.37,1-2.54,1.87-4.94,1.41-7.36-.59-3.07-3.09-4.93-5.74-6.91-2.12-1.58-4.3-3.21-5.63-5.56a19.1,19.1,0,0,1-1.84-7.17c-.14-1.09-.28-2.23-.5-3.29-1.48-7.16-5.81-10.64-10.41-14.32a47.94,47.94,0,0,1-7.12-6.58c-2.15-2.6-3.46-5.91-4.72-9.1-1.82-4.59-3.53-8.92-7.5-11.37-4.92-3-10.39-.68-16.19,1.81-5.3,2.29-10.8,4.66-16.11,2.77a23,23,0,0,1-6.34-4c-1-.77-2-1.56-3-2.23a20,20,0,0,0-21.2-.72c-1.31.76-2.6,1.7-3.86,2.6-2.63,1.91-5.35,3.88-8.51,4.44-2.81.52-5.6-.16-8.3-.81-.78-.19-1.56-.38-2.34-.54-12.21-2.5-25.56,2.77-34,13.44-.53.67-1,1.35-1.55,2a26.65,26.65,0,0,1-5.64,6.13c-3.37,2.35-7.53,2.71-10.87,3-9.55.84-17.93,2.06-23.78,8.49-2.59,2.85-4.42,6.53-6.19,10.09-1.84,3.72-3.75,7.57-6.58,10.59-4.42,4.71-9.94,6.69-15.29,8.6-1.55.56-3.15,1.13-4.7,1.76-5.15,2.1-9.56,6.17-13.83,10.11-6.2,5.72-12.6,11.63-21.39,11.64h0a38.23,38.23,0,0,1-10.38-2c-3.41-1-6.93-2-10.42-1.92-6.47.14-12.71,4.16-16.3,10.49a.64.64,0,0,1-.39.31.62.62,0,0,1-.48-.07c-12.52-7.27-26.94-14.54-39.57-8.54a48.79,48.79,0,0,0-8.38,5.57,44.23,44.23,0,0,1-9.54,6.12C83,360.85,75,359.4,67.27,358c-8.53-1.54-16.59-3-23.87,1.05-4.34,2.4-7.78,6.51-11.11,10.48Z"/><path class="cls-2" d="M224.53,349.63a.66.66,0,0,1-.3-.07.64.64,0,0,1-.27-.86c5.36-10.37,12-23.28,23.81-29.69,6.19-3.37,13.67-4.9,22.25-4.55l1.37.06c2.66.14,5.42.28,7.89-.59s4.55-2.72,6.56-4.5c4.87-4.34,10.07-8.77,16.07-11.69,6.71-3.27,13.65-4.13,19.54-2.44a.64.64,0,0,1,.44.79.65.65,0,0,1-.79.44c-5.59-1.61-12.21-.77-18.63,2.36-5.86,2.85-11,7.22-15.72,11.44-2.16,1.92-4.33,3.85-7,4.81s-5.6.8-8.39.66l-1.35-.06c-8.34-.34-15.61,1.14-21.59,4.39-11.43,6.22-18,18.94-23.28,29.16A.64.64,0,0,1,224.53,349.63Z"/><path class="cls-2" d="M332.06,362.75a.63.63,0,0,1-.61-.47,7.89,7.89,0,0,1,1.35-6.77c2.38-3.32,7.12-5.77,11.81-6.09a59.3,59.3,0,0,1,6.8.05c4.55.21,8.84.4,12.74-1.36,3.59-1.62,6.17-4.59,8.91-7.74a56.2,56.2,0,0,1,4.35-4.66c8.28-7.66,21.2-9.2,30-3.58a43.77,43.77,0,0,1,3.66,2.7,29.21,29.21,0,0,0,5,3.46c3.56,1.8,7.53,2.06,11.73,2.34a45.67,45.67,0,0,1,8.84,1.16,22.82,22.82,0,0,1,14.43,11.93.62.62,0,0,1-.29.85.64.64,0,0,1-.86-.29A21.51,21.51,0,0,0,436.37,343a45.61,45.61,0,0,0-8.59-1.12c-4.14-.27-8.43-.55-12.23-2.46a31.89,31.89,0,0,1-5.23-3.6,41.35,41.35,0,0,0-3.56-2.63c-8.36-5.32-20.61-3.84-28.48,3.44a55.64,55.64,0,0,0-4.25,4.56c-2.71,3.11-5.51,6.33-9.35,8.07-4.19,1.88-8.83,1.67-13.32,1.47a57,57,0,0,0-6.66-.05c-4.26.29-8.72,2.57-10.86,5.56a6.56,6.56,0,0,0-1.16,5.69.64.64,0,0,1-.45.78Z"/><path class="cls-2" d="M129.21,365.77a.64.64,0,0,1-.35-1.17c11.33-7.52,21.28-10.61,30.43-9.44,1.13.14,2.26.35,3.35.56a33.34,33.34,0,0,0,5.36.71c5.66.17,11-2.58,15.68-5a.64.64,0,0,1,.58,1.14c-4.73,2.41-10.07,5.13-15.84,5.13H168a34.23,34.23,0,0,1-5.57-.74c-1.07-.2-2.18-.41-3.27-.55-8.84-1.12-18.5,1.91-29.56,9.24A.61.61,0,0,1,129.21,365.77Z"/><path class="cls-2" d="M64.05,371.1a.64.64,0,0,1-.32-1.19A56.61,56.61,0,0,1,101,363.48a.64.64,0,0,1,.52.74.65.65,0,0,1-.74.52A55.28,55.28,0,0,0,64.36,371,.68.68,0,0,1,64.05,371.1Z"/><path class="cls-2" d="M411.09,287a.56.56,0,0,1-.25-.05c-3.34-1.42-6-3.95-8.53-6.41-1-.91-1.94-1.86-2.94-2.72-2.09-1.82-7.51-5.83-12.59-3.84a17.52,17.52,0,0,0-1.64.79,11.72,11.72,0,0,1-2.66,1.14c-2.57.63-5-.42-7.33-1.43a17.17,17.17,0,0,0-4.74-1.54c-4.54-.5-8.53,3.08-11.9,6.48a.63.63,0,0,1-.9,0,.65.65,0,0,1,0-.91c3.58-3.6,7.84-7.4,12.95-6.84a18,18,0,0,1,5.11,1.63c2.24,1,4.36,1.89,6.52,1.37a10.78,10.78,0,0,0,2.36-1,17,17,0,0,1,1.77-.85c5.73-2.24,11.63,2.09,13.9,4.06,1,.88,2,1.84,3,2.77,2.47,2.37,5,4.83,8.15,6.15a.64.64,0,0,1,.34.84A.63.63,0,0,1,411.09,287Z"/><path class="cls-2" d="M336,290.3h-.1a.64.64,0,0,1-.53-.73c.41-2.68,2.8-4.61,7.3-5.9,13.81-4,24-3.28,31.11,2.12a.65.65,0,0,1,.12.9.64.64,0,0,1-.9.12c-6.77-5.14-16.58-5.77-30-1.91-4,1.14-6.06,2.73-6.39,4.86A.64.64,0,0,1,336,290.3Z"/></g></svg>